<svg width="498" height="160" viewBox="0 0 498 160" fill="none" xmlns="http://www.w3.org/2000/svg">
<rect y="131" width="498" height="19" fill="#8658F9"/>
<path d="M25.472 65.96C38.784 65.96 49.216 55.912 49.216 41.96C49.216 28.008 38.784 18.088 25.472 18.088C12.224 18.088 1.792 28.008 1.792 41.96C1.792 55.912 12.224 65.96 25.472 65.96ZM25.472 55.144C18.24 55.144 14.208 49.192 14.208 41.96C14.208 34.728 18.24 28.904 25.472 28.904C32.704 28.904 36.736 34.728 36.736 41.96C36.736 49.192 32.704 55.144 25.472 55.144ZM66.296 65V19.048H55.224V65H66.296ZM94.146 28.456L101.89 18.088H89.282L82.882 28.456H94.146ZM94.274 65H103.106V43.752C103.106 35.048 97.538 29.928 88.066 29.928C79.554 29.928 73.602 35.176 72.962 43.176H82.818C83.202 40.168 84.994 38.504 88.002 38.504C91.074 38.504 92.802 40.168 92.802 43.176V44.84C91.33 44.584 89.602 44.456 87.746 44.456C77.89 44.456 72.45 48.104 72.45 54.824C72.45 61.352 77.25 65.64 84.418 65.64C88.834 65.64 91.842 64.424 94.274 61.672V65ZM82.754 54.504C82.754 52.136 84.738 50.92 88.45 50.92C89.858 50.92 91.138 51.048 92.802 51.368V53.544C92.802 56.36 90.626 58.088 86.978 58.088C84.29 58.088 82.754 56.744 82.754 54.504ZM120.742 50.024L123.686 19.048H109.606L112.486 50.024H120.742ZM123.814 58.6C123.814 54.696 120.87 51.816 116.646 51.816C112.486 51.816 109.542 54.696 109.542 58.6C109.542 62.504 112.55 65.32 116.646 65.32C120.742 65.32 123.814 62.504 123.814 58.6ZM178.004 54.504H157.588V46.632H175.701V36.136H157.588V29.544H177.556V19.048H145.492V65H178.004V54.504ZM205.09 50.216C205.09 54.12 202.402 55.848 200.226 55.848C197.154 55.848 195.298 53.992 195.298 50.216V30.568H184.354V52.264C184.354 61.352 189.538 65.64 196.386 65.64C200.418 65.64 204.066 63.848 205.986 61.288V65H216.034V30.568H205.09V50.216ZM268.357 53.288C268.357 48.36 264.837 45.096 258.181 43.88L250.885 42.536C248.709 42.152 247.621 41.704 247.621 40.232C247.621 38.696 249.285 37.992 251.845 37.992C254.853 37.992 256.965 39.656 257.221 42.408H267.717C267.077 34.728 260.805 29.928 251.781 29.928C242.757 29.928 237.125 34.6 237.125 41.256C237.125 46.824 240.965 50.28 246.981 51.368L253.765 52.584C256.133 53.032 257.285 53.672 257.285 55.208C257.285 57 255.045 57.576 252.549 57.576C248.773 57.576 246.149 55.72 246.149 52.84H235.653C236.357 60.776 241.989 65.64 252.357 65.64C262.725 65.64 268.357 60.904 268.357 53.288ZM290.09 65.64C300.266 65.64 308.074 57.64 308.074 47.784C308.074 37.928 300.266 29.928 290.09 29.928C279.914 29.928 272.106 37.928 272.106 47.784C272.106 57.64 279.914 65.64 290.09 65.64ZM290.09 55.848C286.698 55.848 283.498 53.16 283.498 47.784C283.498 42.408 286.698 39.784 290.09 39.784C293.482 39.784 296.682 42.408 296.682 47.784C296.682 53.16 293.482 55.848 290.09 55.848ZM334.15 50.216C334.15 54.12 331.462 55.848 329.286 55.848C326.214 55.848 324.358 53.992 324.358 50.216V30.568H313.414V52.264C313.414 61.352 318.598 65.64 325.446 65.64C329.478 65.64 333.126 63.848 335.046 61.288V65H345.094V30.568H334.15V50.216ZM25.152 145.96C37.76 145.96 47.424 137.64 48.96 125.352H36.16C35.136 131.176 30.848 135.144 25.28 135.144C18.496 135.144 14.208 129.832 14.208 121.96C14.208 114.152 18.496 108.904 25.28 108.904C30.912 108.904 35.2 112.872 36.16 118.632H48.96C47.488 106.472 37.76 98.088 25.152 98.088C12.096 98.088 1.792 108.52 1.792 121.96C1.792 135.464 12.096 145.96 25.152 145.96ZM65.918 129.128C65.918 121.512 70.846 120.936 78.59 121.704V110.312C73.086 110.312 67.646 112.616 65.022 116.648V110.568H54.974V145H65.918V129.128ZM95.8425 102.568C95.8425 98.92 92.9625 96.296 88.8025 96.296C84.6425 96.296 81.7625 98.92 81.7625 102.568C81.7625 106.152 84.6425 108.776 88.8025 108.776C92.9625 108.776 95.8425 106.152 95.8425 102.568ZM94.3705 145V110.568H83.4265V145H94.3705ZM132.72 133.288C132.72 128.36 129.199 125.096 122.543 123.88L115.247 122.536C113.071 122.152 111.983 121.704 111.983 120.232C111.983 118.696 113.647 117.992 116.207 117.992C119.215 117.992 121.327 119.656 121.583 122.408H132.079C131.439 114.728 125.167 109.928 116.143 109.928C107.119 109.928 101.487 114.6 101.487 121.256C101.487 126.824 105.327 130.28 111.343 131.368L118.127 132.584C120.495 133.032 121.647 133.672 121.647 135.208C121.647 137 119.407 137.576 116.911 137.576C113.135 137.576 110.511 135.72 110.511 132.84H100.015C100.719 140.776 106.351 145.64 116.719 145.64C127.087 145.64 132.72 140.904 132.72 133.288ZM160.81 134.248C159.594 135.016 157.866 135.464 156.074 135.464C153.066 135.464 151.658 133.928 151.658 130.6V120.104H161.066V110.568H151.658V100.456H140.714V110.568H134.314V120.104H140.714V133.16C140.714 141.032 145.258 145.64 153.002 145.64C156.074 145.64 158.378 145.128 160.81 143.784V134.248ZM179.012 102.568C179.012 98.92 176.132 96.296 171.972 96.296C167.812 96.296 164.932 98.92 164.932 102.568C164.932 106.152 167.812 108.776 171.972 108.776C176.132 108.776 179.012 106.152 179.012 102.568ZM177.54 145V110.568H166.596V145H177.54ZM205.521 145H214.353V123.752C214.353 115.048 208.785 109.928 199.313 109.928C190.801 109.928 184.849 115.176 184.209 123.176H194.065C194.449 120.168 196.241 118.504 199.249 118.504C202.321 118.504 204.049 120.168 204.049 123.176V124.84C202.577 124.584 200.849 124.456 198.993 124.456C189.137 124.456 183.697 128.104 183.697 134.824C183.697 141.352 188.497 145.64 195.665 145.64C200.081 145.64 203.089 144.424 205.521 141.672V145ZM194.001 134.504C194.001 132.136 195.985 130.92 199.697 130.92C201.105 130.92 202.385 131.048 204.049 131.368V133.544C204.049 136.36 201.873 138.088 198.225 138.088C195.537 138.088 194.001 136.744 194.001 134.504ZM232.758 126.888C232.758 121.704 235.19 119.784 237.878 119.784C241.206 119.784 242.742 122.152 242.742 126.504V145H253.686V122.856C253.686 114.472 248.886 109.928 242.102 109.928C237.75 109.928 234.55 111.72 231.862 114.728V110.568H221.814V145H232.758V126.888ZM277.012 145.64C287.188 145.64 294.996 137.64 294.996 127.784C294.996 117.928 287.188 109.928 277.012 109.928C266.836 109.928 259.028 117.928 259.028 127.784C259.028 137.64 266.836 145.64 277.012 145.64ZM277.012 135.848C273.62 135.848 270.42 133.16 270.42 127.784C270.42 122.408 273.62 119.784 277.012 119.784C280.404 119.784 283.604 122.408 283.604 127.784C283.604 133.16 280.404 135.848 277.012 135.848ZM356.975 99.048H344.815L334.383 130.856L324.271 99.048H311.151L327.407 145H340.591L356.975 99.048ZM373.665 102.568C373.665 98.92 370.785 96.296 366.625 96.296C362.465 96.296 359.585 98.92 359.585 102.568C359.585 106.152 362.465 108.776 366.625 108.776C370.785 108.776 373.665 106.152 373.665 102.568ZM372.193 145V110.568H361.249V145H372.193ZM395.566 145.576C404.142 145.576 410.222 141.16 412.334 133.288H401.39C400.43 135.784 398.382 137.064 395.31 137.064C391.79 137.064 389.742 134.888 389.166 130.536H412.526C414.51 119.208 406.894 109.928 395.502 109.928C385.262 109.928 377.838 117.416 377.838 127.72C377.838 138.408 384.942 145.576 395.566 145.576ZM395.246 117.992C398.51 117.992 400.686 120.232 400.814 123.688H389.294C390.062 119.848 391.982 117.992 395.246 117.992ZM430.883 102.568C430.883 98.92 428.003 96.296 423.843 96.296C419.683 96.296 416.803 98.92 416.803 102.568C416.803 106.152 419.683 108.776 423.843 108.776C428.003 108.776 430.883 106.152 430.883 102.568ZM429.411 145V110.568H418.467V145H429.411ZM448.175 129.128C448.175 121.512 453.103 120.936 460.847 121.704V110.312C455.343 110.312 449.903 112.616 447.279 116.648V110.568H437.231V145H448.175V129.128ZM485.844 145H494.676V123.752C494.676 115.048 489.108 109.928 479.636 109.928C471.124 109.928 465.172 115.176 464.532 123.176H474.388C474.772 120.168 476.564 118.504 479.572 118.504C482.644 118.504 484.372 120.168 484.372 123.176V124.84C482.9 124.584 481.172 124.456 479.316 124.456C469.46 124.456 464.02 128.104 464.02 134.824C464.02 141.352 468.82 145.64 475.988 145.64C480.404 145.64 483.412 144.424 485.844 141.672V145ZM474.324 134.504C474.324 132.136 476.308 130.92 480.02 130.92C481.428 130.92 482.708 131.048 484.372 131.368V133.544C484.372 136.36 482.196 138.088 478.548 138.088C475.86 138.088 474.324 136.744 474.324 134.504Z" fill="white"/>
</svg>
