<svg width="225" height="31" viewBox="0 0 225 31" fill="none" xmlns="http://www.w3.org/2000/svg">
<path d="M14.7792 31C22.7559 31 28.87 25.8067 29.8418 18.1366H21.7436C21.0957 21.7719 18.3829 24.2487 14.8601 24.2487C10.5681 24.2487 7.85523 20.933 7.85523 16.0193C7.85523 11.1456 10.5681 7.86985 14.8601 7.86985C18.4233 7.86985 21.1362 10.3466 21.7436 13.942H29.8418C28.9105 6.3518 22.7559 1.11856 14.7792 1.11856C6.51903 1.11856 0 7.63015 0 16.0193C0 24.4485 6.51903 31 14.7792 31Z" fill="white"/>
<path d="M40.5706 20.4936C40.5706 15.7397 43.6884 15.3802 48.5878 15.8595V8.74871C45.1056 8.74871 41.6638 10.1869 40.0037 12.7036V8.9085H33.6466V30.4008H40.5706V20.4936Z" fill="white"/>
<path d="M59.5029 3.91495C59.5029 1.63789 57.6808 0 55.0489 0C52.417 0 50.5949 1.63789 50.5949 3.91495C50.5949 6.15206 52.417 7.78995 55.0489 7.78995C57.6808 7.78995 59.5029 6.15206 59.5029 3.91495ZM58.5716 30.4008V8.9085H51.6477V30.4008H58.5716Z" fill="white"/>
<path d="M82.8339 23.0902C82.8339 20.0142 80.6069 17.9768 76.3958 17.2178L71.7799 16.3789C70.4032 16.1392 69.7148 15.8595 69.7148 14.9407C69.7148 13.982 70.7676 13.5425 72.3872 13.5425C74.2903 13.5425 75.6265 14.5812 75.7885 16.299H82.429C82.0241 11.5052 78.056 8.50902 72.3467 8.50902C66.6375 8.50902 63.0743 11.4253 63.0743 15.5799C63.0743 19.0554 65.5038 21.2126 69.3099 21.8918L73.602 22.6508C75.1001 22.9304 75.829 23.3299 75.829 24.2887C75.829 25.4072 74.4118 25.7668 72.8326 25.7668C70.4437 25.7668 68.7835 24.6082 68.7835 22.8106H62.143C62.5884 27.7642 66.1516 30.8003 72.7112 30.8003C79.2707 30.8003 82.8339 27.8441 82.8339 23.0902Z" fill="white"/>
<path d="M100.606 23.6894C99.8369 24.1688 98.7436 24.4485 97.6099 24.4485C95.7068 24.4485 94.816 23.4897 94.816 21.4124V14.8608H100.768V8.9085H94.816V2.59665H87.8921V8.9085H83.843V14.8608H87.8921V23.0103C87.8921 27.924 90.7669 30.8003 95.6663 30.8003C97.6099 30.8003 99.0675 30.4807 100.606 29.6418V23.6894Z" fill="white"/>
<path d="M112.122 3.91495C112.122 1.63789 110.3 0 107.668 0C105.036 0 103.214 1.63789 103.214 3.91495C103.214 6.15206 105.036 7.78995 107.668 7.78995C110.3 7.78995 112.122 6.15206 112.122 3.91495ZM111.191 30.4008V8.9085H104.267V30.4008H111.191Z" fill="white"/>
<path d="M128.893 30.4008H134.481V17.1379C134.481 11.7049 130.959 8.50902 124.966 8.50902C119.581 8.50902 115.815 11.7848 115.41 16.7784H121.646C121.889 14.9008 123.022 13.8621 124.925 13.8621C126.869 13.8621 127.962 14.9008 127.962 16.7784V17.817C127.031 17.6572 125.938 17.5773 124.763 17.5773C118.528 17.5773 115.086 19.8544 115.086 24.049C115.086 28.1237 118.123 30.8003 122.658 30.8003C125.452 30.8003 127.355 30.0412 128.893 28.3235V30.4008ZM121.605 23.8492C121.605 22.3711 122.86 21.6121 125.209 21.6121C126.1 21.6121 126.909 21.692 127.962 21.8918V23.25C127.962 25.0077 126.586 26.0863 124.278 26.0863C122.577 26.0863 121.605 25.2474 121.605 23.8492Z" fill="white"/>
<path d="M146.125 19.0954C146.125 15.8595 147.664 14.6611 149.364 14.6611C151.47 14.6611 152.442 16.1392 152.442 18.8557V30.4008H159.366V16.5786C159.366 11.3454 156.329 8.50902 152.037 8.50902C149.283 8.50902 147.259 9.62758 145.558 11.5052V8.9085H139.201V30.4008H146.125V19.0954Z" fill="white"/>
<path d="M174.123 30.8003C180.561 30.8003 185.501 25.8067 185.501 19.6546C185.501 13.5026 180.561 8.50902 174.123 8.50902C167.685 8.50902 162.745 13.5026 162.745 19.6546C162.745 25.8067 167.685 30.8003 174.123 30.8003ZM174.123 24.6881C171.977 24.6881 169.953 23.0103 169.953 19.6546C169.953 16.299 171.977 14.6611 174.123 14.6611C176.269 14.6611 178.294 16.299 178.294 19.6546C178.294 23.0103 176.269 24.6881 174.123 24.6881Z" fill="white"/>
<path d="M213 1.71778H205.307L198.707 21.5722L192.309 1.71778H184.009L194.293 30.4008H202.634L213 1.71778Z" fill="white"/>
<circle cx="221" cy="27" r="4" fill="#8658F9"/>
</svg>
