<svg width="77" height="76" viewBox="0 0 77 76" fill="none" xmlns="http://www.w3.org/2000/svg">
<path d="M15.8312 0C11.4821 0 8.26494 3.80797 8.40856 7.93771C8.54672 11.9045 8.36735 17.0432 7.07359 21.2329C5.7768 25.436 3.58315 28.092 0 28.4337V32.3041C3.58315 32.6453 5.7768 35.3019 7.07359 39.505C8.36735 43.6947 8.54612 48.8334 8.40856 52.8001C8.26434 56.9299 11.4821 60.7372 15.8312 60.7372H60.3949C64.744 60.7372 67.9611 56.9293 67.8175 52.8001C67.6793 48.8334 67.8587 43.6947 69.1519 39.505C70.4487 35.3025 72.6368 32.6459 76.22 32.3041V28.4337C72.6368 28.0926 70.4493 25.436 69.1519 21.2329C67.8587 17.0432 67.6793 11.9045 67.8175 7.93771C67.9611 3.80797 64.744 0 60.3943 0H15.8312ZM51.047 37.3804C51.047 43.0669 46.804 46.5143 39.7631 46.5143H26.7818C26.7029 46.5143 26.6272 46.483 26.5714 46.4272C26.5156 46.3714 26.4843 46.2957 26.4843 46.2168V14.5083C26.4842 14.4692 26.4919 14.4305 26.5068 14.3943C26.5217 14.3581 26.5436 14.3253 26.5712 14.2976C26.5989 14.2699 26.6317 14.2479 26.6678 14.2329C26.704 14.2179 26.7427 14.2102 26.7818 14.2102H39.6946C45.566 14.2102 49.4188 17.3892 49.4188 22.2697C49.4188 25.6953 46.827 28.7616 43.5244 29.2991V29.4784C48.0196 29.9711 51.047 33.0828 51.047 37.3804ZM38.456 18.3072H31.6218V27.9556H37.3786C41.8277 27.9556 44.2813 26.1649 44.2813 22.9636C44.2813 19.964 42.1719 18.3072 38.456 18.3072ZM31.6218 31.7842V42.4179H38.7087C43.3414 42.4179 45.7956 40.56 45.7956 37.0671C45.7956 33.5749 43.2729 31.7842 38.4106 31.7842H31.6218Z" fill="#7952B3"/>
<path d="M6.23431 72.3411V61.5923H9.29269C10.2219 61.5923 10.9589 61.8197 11.5039 62.2746C12.0485 62.7291 12.3208 63.3211 12.3208 64.0507C12.3208 64.6608 12.1559 65.1906 11.8263 65.6402C11.4962 66.0899 11.0413 66.4096 10.4616 66.5995V66.6298C11.1864 66.7146 11.7661 66.9893 12.2008 67.4539C12.6355 67.9137 12.8528 68.5134 12.8528 69.2531C12.8528 70.1725 12.5232 70.9171 11.8639 71.4867C11.2041 72.0563 10.3719 72.3411 9.36722 72.3411H6.23431ZM7.49354 62.7315V66.202H8.78306C9.47266 66.202 10.0148 66.0371 10.4095 65.7075C10.8042 65.3722 11.0015 64.9023 11.0015 64.298C11.0015 63.2537 10.3144 62.7315 8.94001 62.7315H7.49354ZM7.49354 67.3339V71.2019H9.2024C9.9421 71.2019 10.5143 71.027 10.9191 70.6771C11.3288 70.3273 11.5336 69.8475 11.5336 69.2379C11.5336 67.9686 10.6691 67.3339 8.94001 67.3339H7.49354ZM18.0776 72.5229C16.9432 72.5229 16.0362 72.1656 15.3567 71.451C14.6821 70.7315 14.3447 69.7795 14.3447 68.595C14.3447 67.3059 14.697 66.2989 15.4016 65.5742C16.1061 64.8498 17.0581 64.4877 18.2575 64.4877C19.4016 64.4877 20.2936 64.8399 20.9335 65.5445C21.5779 66.249 21.9001 67.2259 21.9001 68.475C21.9001 69.6995 21.5528 70.6816 20.8584 71.4213C20.1688 72.1557 19.2418 72.5229 18.0776 72.5229ZM18.1672 65.5221C17.3779 65.5221 16.7533 65.7919 16.2936 66.3316C15.8338 66.8661 15.604 67.6056 15.604 68.5501C15.604 69.4599 15.8362 70.177 16.3008 70.7014C16.7654 71.2265 17.3876 71.4891 18.1672 71.4891C18.9619 71.4891 19.5717 71.2316 19.9967 70.7165C20.4261 70.2018 20.6409 69.4698 20.6409 68.5204C20.6409 67.561 20.4261 66.8213 19.9967 66.3013C19.5717 65.7818 18.9619 65.5221 18.1672 65.5221ZM27.0727 72.5229C25.9383 72.5229 25.0314 72.1656 24.3519 71.451C23.6772 70.7315 23.3399 69.7795 23.3399 68.595C23.3399 67.3059 23.6922 66.2989 24.3967 65.5742C25.1013 64.8498 26.0533 64.4877 27.2527 64.4877C28.3968 64.4877 29.2888 64.8399 29.9287 65.5445C30.5735 66.249 30.8958 67.2259 30.8958 68.475C30.8958 69.6995 30.5484 70.6816 29.8535 71.4213C29.1639 72.1557 28.237 72.5229 27.0727 72.5229ZM27.1624 65.5221C26.373 65.5221 25.7484 65.7919 25.2887 66.3316C24.829 66.8661 24.5991 67.6056 24.5991 68.5501C24.5991 69.4599 24.8314 70.177 25.296 70.7014C25.7606 71.2265 26.3827 71.4891 27.1624 71.4891C27.957 71.4891 28.5669 71.2316 28.9918 70.7165C29.4213 70.2018 29.636 69.4698 29.636 68.5204C29.636 67.561 29.4213 66.8213 28.9918 66.3013C28.5669 65.7818 27.957 65.5221 27.1624 65.5221ZM36.4199 72.2684C36.1303 72.4284 35.7479 72.5084 35.2728 72.5084C33.9288 72.5084 33.2567 71.7588 33.2567 70.2596V65.7172H31.9375V64.6676H33.2567V62.7939L34.4863 62.3964V64.6676H36.4199V65.7172H34.4863V70.0421C34.4863 70.5567 34.5737 70.9242 34.7486 71.1443C34.9232 71.3641 35.2128 71.474 35.6176 71.474C35.9275 71.474 36.1949 71.3891 36.4199 71.2195V72.2684ZM37.5967 72.0624V70.7432C38.2661 71.2376 39.0032 71.4849 39.808 71.4849C40.8874 71.4849 41.4271 71.1253 41.4271 70.4062C41.4271 70.201 41.3797 70.0285 41.2847 69.8887C41.1946 69.7437 41.0696 69.6163 40.9096 69.5064C40.7549 69.3965 40.5701 69.2991 40.3552 69.2143C40.1451 69.1242 39.9176 69.0317 39.6728 68.9367C39.3335 68.8018 39.0337 68.6669 38.7736 68.532C38.519 68.3922 38.3041 68.2372 38.1288 68.0672C37.9591 67.8922 37.8292 67.6949 37.7391 67.4751C37.6543 67.2554 37.6119 66.998 37.6119 66.7031C37.6119 66.3436 37.6943 66.0262 37.8591 65.7511C38.024 65.4712 38.2437 65.2389 38.5184 65.0542C38.7931 64.8644 39.1056 64.7218 39.4559 64.6264C39.8106 64.5315 40.1754 64.484 40.5503 64.484C41.2148 64.484 41.8095 64.5991 42.3343 64.8294V66.0735C41.7695 65.7034 41.1197 65.5184 40.3848 65.5184C40.155 65.5184 39.9477 65.5459 39.7631 65.6008C39.5781 65.6509 39.4181 65.7236 39.2832 65.819C39.1531 65.9135 39.0507 66.0283 38.976 66.1632C38.9061 66.2933 38.8711 66.4383 38.8711 66.5983C38.8711 66.7978 38.9061 66.9651 38.976 67.1C39.0507 67.235 39.1581 67.3549 39.2983 67.46C39.4381 67.565 39.608 67.66 39.808 67.7448C40.0079 67.8296 40.2354 67.9221 40.4903 68.0223C40.8296 68.152 41.1344 68.2869 41.4047 68.4271C41.6746 68.562 41.9044 68.717 42.0943 68.8919C42.2842 69.0616 42.429 69.2589 42.5288 69.4839C42.6338 69.7086 42.6864 69.9758 42.6864 70.2857C42.6864 70.6654 42.6015 70.9953 42.4319 71.2752C42.2666 71.5552 42.044 71.7875 41.7641 71.9721C41.4845 72.1571 41.1623 72.2947 40.7975 72.3848C40.4327 72.4749 40.0504 72.5199 39.6504 72.5199C38.861 72.5199 38.1769 72.3674 37.5967 72.0624ZM48.1353 72.2684C47.8457 72.4284 47.4633 72.5084 46.9882 72.5084C45.6441 72.5084 44.9721 71.7588 44.9721 70.2596V65.7172H43.6529V64.6676H44.9721V62.7939L46.2016 62.3964V64.6676H48.1353V65.7172H46.2016V70.0421C46.2016 70.5567 46.2891 70.9242 46.464 71.1443C46.6386 71.3641 46.9282 71.474 47.333 71.474C47.6429 71.474 47.9103 71.3891 48.1353 71.2195V72.2684ZM53.78 65.9117C53.5651 65.7469 53.2552 65.6645 52.8504 65.6645C52.3257 65.6645 51.8859 65.9117 51.5312 66.4062C51.1814 66.9011 51.0064 67.5757 51.0064 68.4301V72.343H49.7775V64.6676H51.0064V66.2492H51.0367C51.2117 65.7095 51.4789 65.2898 51.8385 64.99C52.198 64.685 52.6004 64.5325 53.0456 64.5325C53.3651 64.5325 53.6099 64.5676 53.78 64.6379V65.9117ZM60.61 72.3411H59.3805V71.1413H59.3502C58.8157 72.0612 58.0289 72.5211 56.9899 72.5211C56.2251 72.5211 55.6252 72.3187 55.1901 71.9139C54.7607 71.5091 54.546 70.9718 54.546 70.302C54.546 68.8679 55.3903 68.0336 57.079 67.7993L59.3805 67.4763C59.3805 66.1723 58.8533 65.5202 57.7989 65.5202C56.8745 65.5202 56.0401 65.8349 55.2956 66.4644V65.2051C56.0502 64.7256 56.9198 64.4858 57.9043 64.4858C59.7081 64.4858 60.61 65.4402 60.61 67.3491V72.3411ZM59.3805 68.4586L57.5292 68.7131C56.9596 68.7931 56.5297 68.9355 56.2397 69.1404C55.95 69.3403 55.8052 69.6977 55.8052 70.2123C55.8052 70.5872 55.9377 70.8947 56.2027 71.1346C56.4726 71.3689 56.8299 71.4861 57.2747 71.4861C57.8843 71.4861 58.3865 71.274 58.7812 70.8498C59.1811 70.42 59.3811 69.8776 59.3811 69.2228L59.3805 68.4586ZM64.1853 71.2322H64.155V75.8722H62.926V64.6658H64.1556V66.0147H64.1853C64.79 64.9955 65.6746 64.4858 66.8388 64.4858C67.8282 64.4858 68.6002 64.8306 69.1549 65.5202C69.7096 66.2046 69.9869 67.1241 69.9869 68.2787C69.9869 69.5629 69.6746 70.5923 69.0501 71.3667C68.4255 72.1363 67.5711 72.5211 66.4868 72.5211C65.4922 72.5211 64.725 72.0919 64.1853 71.2322ZM64.155 68.1362V69.2088C64.155 69.8431 64.36 70.3826 64.77 70.8274C65.1849 71.2673 65.7095 71.4873 66.3438 71.4873C67.0887 71.4873 67.6711 71.2025 68.0908 70.6329C68.515 70.0633 68.7271 69.271 68.7271 68.2562C68.7271 67.4018 68.5299 66.7322 68.1356 66.2474C67.741 65.7626 67.2063 65.5202 66.5316 65.5202C65.8166 65.5202 65.2419 65.7701 64.8076 66.2698C64.3725 66.7647 64.155 67.3869 64.155 68.1362Z" fill="#7952B3"/>
</svg>
