<svg width="91" height="53" viewBox="0 0 91 53" fill="none" xmlns="http://www.w3.org/2000/svg">
<path d="M91 51.6256C87.6899 52.4704 85.6424 51.6626 83.8058 48.8939L70.7413 30.7491L68.8528 28.2366L53.5962 48.9542C51.8531 51.4468 50.0246 52.5307 46.7712 51.6489L66.3078 25.322L48.1191 1.54112C51.247 0.930655 53.4085 1.24103 55.3277 4.05357L68.8781 22.4245L82.5281 4.1536C84.2767 1.66102 86.157 0.714148 89.2965 1.63225L82.2442 11.0188L72.6892 23.5084C71.5514 24.9356 71.7077 25.9126 72.7547 27.2904L91 51.6256ZM0.0232051 24.8821L1.62094 16.9913C5.97189 1.37532 23.8022 -5.11374 36.0989 4.53523C43.2849 10.2103 45.071 18.2382 44.7155 27.2308H4.20899C3.60088 43.4175 15.2061 53.1864 30.0014 48.2026C35.1912 46.4527 38.2481 42.3726 39.7782 37.269C40.5549 34.7113 41.8394 34.3112 44.2343 35.0422C43.0119 41.4258 40.2533 46.7583 34.4233 50.0956C25.7133 55.0911 13.2794 53.4755 6.7397 46.5329C2.8433 42.5042 1.23396 37.4005 0.511876 31.9419C0.397898 31.0396 0.170625 30.1804 0 29.3157C0.015015 27.8386 0.0232051 26.3621 0.0232051 24.8849V24.8821ZM4.2827 23.7975H40.8873C40.6484 12.0931 33.3887 3.77951 23.4665 3.70894C12.5751 3.62329 4.75431 11.7389 4.28202 23.7975H4.2827Z" fill="white"/>
</svg>
