<svg width="66" height="64" viewBox="0 0 66 64" fill="none" xmlns="http://www.w3.org/2000/svg">
<path d="M63.793 29.1494L35.851 1.20744C35.4684 0.824647 35.0141 0.520988 34.5141 0.313811C34.0141 0.106634 33.4782 0 32.937 0C32.3958 0 31.8598 0.106634 31.3598 0.313811C30.8599 0.520988 30.4056 0.824647 30.023 1.20744L24.223 7.00744L31.583 14.3674C33.295 13.7674 35.255 14.1774 36.619 15.5414C37.2683 16.1919 37.7215 17.0119 37.927 17.9077C38.1325 18.8035 38.0819 19.739 37.781 20.6074L44.875 27.7014C46.591 27.1094 48.571 27.4914 49.941 28.8654C50.3964 29.321 50.7576 29.8618 51.0041 30.457C51.2505 31.0521 51.3773 31.69 51.3772 32.3341C51.3771 32.9783 51.2501 33.6161 51.0035 34.2112C50.7569 34.8063 50.3955 35.347 49.94 35.8024C49.4844 36.2579 48.9436 36.6191 48.3485 36.8655C47.7533 37.1119 47.1154 37.2387 46.4713 37.2386C45.8271 37.2385 45.1893 37.1116 44.5942 36.865C43.9991 36.6184 43.4584 36.257 43.003 35.8014C41.563 34.3614 41.207 32.2414 41.935 30.4674L35.319 23.8514V41.2614C35.7992 41.4991 36.2382 41.8124 36.619 42.1894C37.0744 42.6449 37.4357 43.1855 37.6821 43.7806C37.9286 44.3756 38.0555 45.0134 38.0555 45.6574C38.0555 46.3015 37.9286 46.9393 37.6821 47.5343C37.4357 48.1293 37.0744 48.67 36.619 49.1254C36.1636 49.5809 35.6229 49.9421 35.0278 50.1886C34.4328 50.4351 33.795 50.5619 33.151 50.5619C32.5069 50.5619 31.8692 50.4351 31.2741 50.1886C30.6791 49.9421 30.1384 49.5809 29.683 49.1254C29.227 48.6703 28.8653 48.1297 28.6185 47.5347C28.3717 46.9396 28.2446 46.3017 28.2446 45.6574C28.2446 45.0132 28.3717 44.3753 28.6185 43.7802C28.8653 43.1851 29.227 42.6446 29.683 42.1894C30.157 41.7174 30.683 41.3594 31.289 41.1194V23.5474C30.705 23.3074 30.157 22.9534 29.683 22.4774C28.9943 21.7896 28.5261 20.9123 28.338 19.9573C28.15 19.0024 28.2505 18.013 28.627 17.1154L21.367 9.85944L2.20698 28.9994C1.82388 29.3821 1.51997 29.8365 1.31262 30.3367C1.10526 30.8368 0.998535 31.373 0.998535 31.9144C0.998535 32.4559 1.10526 32.992 1.31262 33.4922C1.51997 33.9924 1.82388 34.4468 2.20698 34.8294L30.151 62.7694C30.5336 63.1522 30.9879 63.4559 31.4879 63.6631C31.9878 63.8702 32.5238 63.9769 33.065 63.9769C33.6062 63.9769 34.1421 63.8702 34.6421 63.6631C35.1421 63.4559 35.5964 63.1522 35.979 62.7694L63.793 34.9994C64.1761 34.6168 64.48 34.1624 64.6873 33.6622C64.8947 33.162 65.0014 32.6259 65.0014 32.0844C65.0014 31.543 64.8947 31.0068 64.6873 30.5067C64.48 30.0065 64.1761 29.5521 63.793 29.1694" fill="#F03C2E"/>
</svg>
