<svg width="60" height="60" viewBox="0 0 60 60" fill="none" xmlns="http://www.w3.org/2000/svg">
<path d="M0 0H60V60H0V0Z" fill="#F0DB4F"/>
<path d="M55.0894 45.6901C54.6502 42.9525 52.8651 40.654 47.578 38.5095C45.7415 37.6654 43.694 37.0609 43.0837 35.6692C42.867 34.8593 42.8385 34.4031 42.9753 33.9126C43.3689 32.3213 45.2681 31.8251 46.7738 32.2814C47.7434 32.6065 48.6617 33.3537 49.2149 34.5457C51.8042 32.8689 51.7985 32.8803 53.6065 31.7282C52.9449 30.7016 52.5913 30.2282 52.1578 29.7891C50.6008 28.0495 48.4791 27.1541 45.0856 27.2225C44.4982 27.2967 43.9051 27.3765 43.3175 27.4507C41.6237 27.8784 40.0096 28.7682 39.0628 29.9602C36.2225 33.1826 37.0324 38.8232 40.4887 41.1446C43.8936 43.6997 48.8955 44.2815 49.5343 46.6712C50.1559 49.597 47.3841 50.5438 44.6293 50.2073C42.5989 49.7853 41.4697 48.7529 40.2491 46.8765C38.002 48.1769 38.002 48.1769 35.6921 49.5058C36.2397 50.7035 36.8156 51.2453 37.734 52.2834C42.08 56.6921 52.9563 56.4754 54.907 49.8024C54.9867 49.5742 55.5115 48.0457 55.0894 45.6901ZM32.6179 27.5761H27.0058C27.0058 32.424 26.983 37.2377 26.983 42.0856C26.983 45.1711 27.1427 48 26.6408 48.867C25.8195 50.5722 23.6921 50.3612 22.7225 50.0304C21.7359 49.5456 21.234 48.8555 20.6522 47.8803C20.4925 47.6008 20.3727 47.3841 20.3328 47.367C18.81 48.2966 17.2928 49.2319 15.77 50.1616C16.5286 51.7187 17.6464 53.0704 19.078 53.9486C21.2168 55.2319 24.0913 55.6254 27.0971 54.9353C29.0533 54.365 30.7415 53.1844 31.6255 51.3879C32.9031 49.0324 32.6293 46.1806 32.6179 43.0266C32.6464 37.8822 32.6179 32.7377 32.6179 27.5761Z" fill="#323330"/>
</svg>
