<svg width="100" height="60" viewBox="0 0 100 60" fill="none" xmlns="http://www.w3.org/2000/svg">
<path d="M23.8549 15.6488H42.5276V17.1406H25.5662V28.3605H41.5164V29.8524H25.5662V42.1717H42.721V43.6636H23.8549V15.6488ZM44.2002 15.6488H46.1841L54.9761 27.972L63.9615 15.6527L76.1838 0L56.1034 29.2638L66.452 43.6636H64.3889L54.9761 30.5575L45.5228 43.6636H43.5002L53.9242 29.2638L44.2002 15.6488ZM67.1906 17.1406V15.6488H88.4737V17.1406H78.6704V43.6636H76.9591V17.1406H67.1906ZM0.495178 15.6488H2.63567L32.1384 60L19.9452 43.6636L2.28375 17.7681L2.20641 43.6636H0.495178V15.6488ZM88.2958 41.723C88.1723 41.7249 88.051 41.6899 87.9473 41.6223C87.8437 41.5548 87.7623 41.4578 87.7137 41.3437C87.6651 41.2296 87.6514 41.1035 87.6743 40.9816C87.6973 40.8596 87.7558 40.7472 87.8425 40.6588C87.9291 40.5703 88.04 40.5098 88.1611 40.4849C88.2821 40.4599 88.4078 40.4717 88.5221 40.5188C88.6365 40.5658 88.7343 40.646 88.8031 40.749C88.872 40.8521 88.9087 40.9734 88.9088 41.0975C88.9108 41.1794 88.8965 41.2609 88.8665 41.3371C88.8366 41.4133 88.7917 41.4826 88.7345 41.541C88.6773 41.5994 88.6089 41.6456 88.5336 41.6768C88.4582 41.7081 88.3773 41.7238 88.2958 41.723ZM89.978 40.0796H90.8946C90.9062 40.5789 91.2697 40.913 91.8014 40.913C92.397 40.913 92.7334 40.5536 92.7334 39.8796V35.6061H93.6673V39.8796C93.6673 41.0936 92.9674 41.7929 91.8111 41.7929C90.7244 41.7968 89.978 41.1189 89.978 40.0796ZM94.8874 40.0253H95.8214C95.8987 40.608 96.4575 40.9635 97.2619 40.9635C98.0102 40.9635 98.5593 40.575 98.5593 40.0388C98.5593 39.5785 98.2093 39.3007 97.4146 39.1123L96.6412 38.918C95.5545 38.6636 95.0595 38.141 95.0595 37.2475C95.0595 36.1713 95.9335 35.4565 97.2445 35.4565C98.4646 35.4565 99.354 36.1713 99.4082 37.1892H98.5013C98.4143 36.6317 97.9309 36.284 97.2309 36.284C96.4942 36.284 96.0031 36.6414 96.0031 37.1853C96.0031 37.6166 96.3202 37.8632 97.1033 38.0478L97.7646 38.211C98.9963 38.5004 99.5048 39.0035 99.5048 39.9106C99.5048 41.0664 98.6135 41.791 97.1845 41.791C95.8484 41.7968 94.9532 41.1072 94.8874 40.0253Z" fill="white"/>
</svg>
