<svg width="102" height="63" viewBox="0 0 102 63" fill="none" xmlns="http://www.w3.org/2000/svg">
<path d="M50.4146 63.0004C50.0754 63.0002 49.7422 62.9107 49.4479 62.7405L46.3732 60.9041C45.9132 60.6443 46.138 60.5553 46.2902 60.4995C46.7754 60.3443 47.24 60.1299 47.6737 59.8612C47.7098 59.8435 47.7498 59.8356 47.7899 59.8384C47.8299 59.8411 47.8685 59.8544 47.9019 59.8769L50.2642 61.2913C50.3085 61.3137 50.3573 61.3253 50.4068 61.3253C50.4564 61.3253 50.5052 61.3137 50.5495 61.2913L59.7616 55.9285C59.8044 55.9024 59.8398 55.8655 59.8643 55.8215C59.8889 55.7775 59.9017 55.7278 59.9016 55.6774V44.957C59.9018 44.9059 59.8888 44.8555 59.864 44.8109C59.8391 44.7663 59.8032 44.7289 59.7598 44.7024L50.5582 39.3449C50.5152 39.3192 50.4662 39.3057 50.4164 39.3057C50.3665 39.3057 50.3175 39.3192 50.2745 39.3449L41.0694 44.7024C41.0251 44.7278 40.9881 44.7646 40.9623 44.809C40.9365 44.8534 40.9228 44.9038 40.9224 44.9553V55.6756C40.9224 55.726 40.9357 55.7755 40.961 55.819C40.9862 55.8626 41.0224 55.8985 41.066 55.9233L43.589 57.3934C44.9586 58.091 45.7956 57.2696 45.7956 56.4517V45.8674C45.7954 45.8321 45.8021 45.7972 45.8155 45.7646C45.8288 45.732 45.8484 45.7024 45.8732 45.6776C45.898 45.6527 45.9275 45.6331 45.9599 45.6199C45.9923 45.6067 46.027 45.6001 46.0619 45.6006H47.2292C47.264 45.6003 47.2985 45.6071 47.3308 45.6204C47.363 45.6337 47.3922 45.6534 47.4168 45.6782C47.4414 45.703 47.4609 45.7325 47.4741 45.765C47.4874 45.7975 47.494 45.8323 47.4938 45.8674V56.4534C47.4938 58.2951 46.4977 59.352 44.7667 59.352C44.2341 59.352 43.8138 59.352 42.6431 58.7712L40.2221 57.3673C39.9281 57.1945 39.6842 56.9471 39.5146 56.6497C39.345 56.3523 39.2556 56.0152 39.2554 55.6721V44.9553C39.2549 44.6123 39.344 44.2752 39.5137 43.9779C39.6834 43.6806 39.9277 43.4337 40.2221 43.2619L49.4427 37.8973C49.7399 37.7343 50.0729 37.6489 50.4112 37.6489C50.7495 37.6489 51.0824 37.7343 51.3796 37.8973L60.5882 43.2654C60.8821 43.4373 61.126 43.684 61.2957 43.9809C61.4653 44.2778 61.5547 44.6144 61.5549 44.957V55.6774C61.5541 56.0201 61.4645 56.3567 61.295 56.6538C61.1254 56.9509 60.8817 57.198 60.5882 57.3708L51.3796 62.7353C51.0837 62.9061 50.7486 62.9957 50.4077 62.9952" fill="#689F63"/>
<path d="M53.2627 55.6128C49.2335 55.6128 48.3878 53.7484 48.3878 52.1823C48.3878 52.1471 48.3947 52.1123 48.4081 52.0798C48.4215 52.0473 48.4412 52.0178 48.4659 51.993C48.4907 51.9682 48.52 51.9486 48.5523 51.9353C48.5846 51.922 48.6192 51.9153 48.6541 51.9155H49.8439C49.9073 51.9155 49.9686 51.9384 50.0168 51.98C50.065 52.0215 50.0969 52.0791 50.1068 52.1422C50.2797 53.363 50.8227 53.9821 53.2593 53.9821C55.2013 53.9821 56.0262 53.5391 56.0262 52.5015C56.0262 51.9033 55.791 51.4551 52.7751 51.1621C50.252 50.9109 48.6939 50.3511 48.6939 48.3159C48.6939 46.4411 50.2624 45.3249 52.8875 45.3249C55.8377 45.3249 57.299 46.3574 57.484 48.5757C57.4869 48.613 57.482 48.6505 57.4699 48.6859C57.4577 48.7212 57.4385 48.7537 57.4133 48.7812C57.3881 48.8087 57.3576 48.8306 57.3237 48.8457C57.2897 48.8608 57.253 48.8686 57.216 48.8687H56.0193C55.959 48.8692 55.9003 48.8486 55.8534 48.8105C55.8064 48.7724 55.774 48.719 55.7616 48.6595C55.4728 47.3741 54.7759 46.9626 52.884 46.9626C50.7639 46.9626 50.5183 47.7072 50.5183 48.2653C50.5183 48.942 50.8089 49.1373 53.6674 49.521C56.4983 49.8994 57.8437 50.4348 57.8437 52.4404C57.8437 54.446 56.1663 55.6337 53.2472 55.6337L53.2627 55.6128ZM64.467 44.2646H64.7748C64.8139 44.2695 64.8536 44.2657 64.8911 44.2534C64.9286 44.2412 64.963 44.2208 64.9919 44.1937C65.0207 44.1666 65.0433 44.1334 65.0581 44.0966C65.0729 44.0597 65.0795 44.02 65.0774 43.9803C65.0774 43.7065 64.8906 43.7065 64.7869 43.7065H64.4687L64.467 44.2646ZM64.09 43.3926H64.7817C65.0169 43.3926 65.4734 43.3926 65.4734 43.9158C65.483 44.0304 65.4498 44.1445 65.3804 44.2358C65.311 44.327 65.2104 44.3889 65.0982 44.4093C65.3714 44.4268 65.3904 44.6082 65.4267 44.8645C65.4377 45.0429 65.4726 45.2189 65.5305 45.3877H65.1085C65.0982 45.2953 65.0324 44.7826 65.0324 44.7547C65.0048 44.6413 64.9667 44.5803 64.8249 44.5803H64.4791V45.3842H64.0934L64.09 43.3926ZM63.2668 44.3919C63.2658 44.6893 63.3524 44.9804 63.5156 45.2281C63.6788 45.4758 63.9113 45.6691 64.1836 45.7834C64.4558 45.8977 64.7556 45.9279 65.0449 45.8701C65.3343 45.8123 65.6 45.6692 65.8086 45.4589C66.0171 45.2486 66.159 44.9806 66.2163 44.6888C66.2736 44.397 66.2437 44.0947 66.1304 43.8201C66.017 43.5455 65.8254 43.311 65.5797 43.1464C65.3341 42.9818 65.0455 42.8945 64.7506 42.8956C64.3576 42.8974 63.9813 43.0556 63.7034 43.3359C63.4255 43.6161 63.2686 43.9956 63.2668 44.3919ZM66.5318 44.3919C66.5318 44.7462 66.4276 45.0924 66.2324 45.387C66.0373 45.6815 65.7599 45.9111 65.4354 46.0466C65.1109 46.1822 64.7538 46.2177 64.4093 46.1486C64.0648 46.0795 63.7483 45.9089 63.4999 45.6584C63.2516 45.4079 63.0824 45.0888 63.0139 44.7413C62.9453 44.3939 62.9805 44.0338 63.1149 43.7065C63.2494 43.3792 63.477 43.0995 63.7691 42.9027C64.0611 42.7059 64.4045 42.6008 64.7558 42.6008C65.2264 42.6022 65.6773 42.7914 66.0101 43.1269C66.3428 43.4625 66.5304 43.9173 66.5318 44.3919Z" fill="#689F63"/>
<path fill-rule="evenodd" clip-rule="evenodd" d="M90.9704 24.4631C91.0047 24.4425 91.0438 24.4316 91.0837 24.4316C91.1235 24.4316 91.1627 24.4425 91.1969 24.4631L93.0715 25.5531C93.1057 25.5732 93.134 25.6019 93.1537 25.6365C93.1735 25.6711 93.1839 25.7103 93.1839 25.7501V27.9336C93.1838 27.9737 93.1734 28.0131 93.1537 28.048C93.134 28.0828 93.1057 28.1119 93.0715 28.1324L91.1969 29.2224C91.1627 29.243 91.1235 29.2539 91.0837 29.2539C91.0438 29.2539 91.0047 29.243 90.9704 29.2224L89.0976 28.1324C89.0625 28.1126 89.0333 28.0838 89.0129 28.0489C88.9926 28.0139 88.9818 27.9742 88.9817 27.9336V25.7501C88.9814 25.7102 88.9916 25.6709 89.0114 25.6362C89.0312 25.6016 89.0597 25.5729 89.0941 25.5531L90.9704 24.4631Z" fill="#689F63"/>
<path d="M36.9847 14.5747L27.2695 20.2305C27.0912 20.3347 26.9433 20.4842 26.8404 20.6642C26.7375 20.8442 26.6833 21.0482 26.6832 21.256V32.5728C26.6831 32.7803 26.7372 32.9842 26.8401 33.1639C26.9431 33.3437 27.0911 33.4929 27.2695 33.5965L36.9847 39.2557C37.1633 39.3595 37.3658 39.4141 37.5718 39.4141C37.7779 39.4141 37.9804 39.3595 38.1589 39.2557L47.8708 33.5965C48.0491 33.4929 48.1972 33.3437 48.3001 33.1639C48.403 32.9842 48.4571 32.7803 48.457 32.5728V21.2542C48.4569 21.0463 48.4025 20.842 48.2993 20.662C48.1961 20.482 48.0477 20.3326 47.869 20.2288L38.1572 14.5747C37.9781 14.4718 37.7754 14.4177 37.5692 14.4177C37.3631 14.4177 37.1604 14.4718 36.9813 14.5747" fill="url(#paint0_linear_125_115)"/>
<path d="M26.96 33.3001C27.0545 33.4235 27.172 33.5272 27.3058 33.6053L35.6394 38.4588L37.0228 39.2645C37.1588 39.3433 37.309 39.3938 37.4647 39.4129C37.6203 39.4321 37.7782 39.4196 37.929 39.3761L48.1803 20.4573C48.1004 20.3715 48.0083 20.298 47.9071 20.2393L41.5467 16.5351L38.1832 14.5835C38.0877 14.5286 37.9854 14.487 37.8788 14.4597L26.96 33.3001Z" fill="url(#paint1_linear_125_115)"/>
<path d="M37.4621 14.4232C37.2967 14.4409 37.1366 14.4925 36.9918 14.5749L27.3076 20.2132L37.7527 39.3972C37.8995 39.3762 38.0409 39.3271 38.1694 39.2524L47.8847 33.5931C48.0314 33.5078 48.158 33.3914 48.2559 33.252C48.3539 33.1126 48.4207 32.9536 48.4519 32.7857L37.8011 14.4424C37.7231 14.4269 37.6437 14.4193 37.5642 14.4197H37.4673" fill="url(#paint2_linear_125_115)"/>
<path fill-rule="evenodd" clip-rule="evenodd" d="M21.8896 21.0555C21.8902 20.8462 21.836 20.6406 21.7324 20.4593C21.6289 20.278 21.4797 20.1275 21.2999 20.023L11.5345 14.355C11.3708 14.2592 11.1859 14.2058 10.9967 14.1998H10.8947C10.7049 14.2064 10.5197 14.2596 10.3551 14.355L0.591425 20.023C0.411565 20.128 0.262236 20.2787 0.158427 20.4603C0.0546184 20.6418 -1.86665e-05 20.8477 4.78385e-09 21.0572L0.0207517 36.3206C0.0184956 36.4265 0.0446198 36.5309 0.0963653 36.623C0.148111 36.7151 0.223557 36.7914 0.314735 36.8438C0.402591 36.8985 0.503774 36.9274 0.606988 36.9274C0.710203 36.9274 0.811386 36.8985 0.899242 36.8438L6.70627 33.4849C6.8852 33.3795 7.03374 33.2288 7.13717 33.0477C7.2406 32.8666 7.29534 32.6614 7.29597 32.4525V25.3178C7.29545 25.109 7.34974 24.9039 7.45332 24.7232C7.55689 24.5424 7.70606 24.3926 7.88566 24.2888L10.3568 22.8465C10.536 22.7427 10.739 22.688 10.9457 22.688C11.1523 22.688 11.3554 22.7427 11.5345 22.8465L14.0074 24.2871C14.1873 24.3912 14.3366 24.5413 14.4405 24.7223C14.5443 24.9033 14.599 25.1087 14.5989 25.3178V32.4472C14.5987 32.6569 14.6529 32.8629 14.7561 33.0449C14.8592 33.2269 15.0077 33.3786 15.1868 33.4849L20.9887 36.8369C21.078 36.8899 21.1798 36.9179 21.2835 36.9179C21.3872 36.9179 21.489 36.8899 21.5784 36.8369C21.6673 36.7843 21.7411 36.7091 21.7924 36.6188C21.8436 36.5286 21.8706 36.4264 21.8706 36.3224L21.8896 21.0555ZM67.9741 29.0028C67.9741 29.0551 67.9606 29.1064 67.9348 29.1517C67.909 29.197 67.8718 29.2347 67.8271 29.261L64.4722 31.2177C64.4274 31.2434 64.3767 31.2569 64.3252 31.2569C64.2737 31.2569 64.223 31.2434 64.1782 31.2177L60.8234 29.2679C60.7786 29.2417 60.7414 29.204 60.7156 29.1587C60.6898 29.1134 60.6763 29.0621 60.6764 29.0098V25.098C60.6761 25.046 60.6894 24.9948 60.7149 24.9495C60.7404 24.9042 60.7772 24.8664 60.8216 24.8399L64.173 22.8867C64.2182 22.8602 64.2695 22.8462 64.3218 22.8462C64.374 22.8462 64.4253 22.8602 64.4705 22.8867L67.8253 24.8399C67.8707 24.8657 67.9084 24.9032 67.9345 24.9486C67.9606 24.994 67.9743 25.0456 67.9741 25.098V29.0028ZM68.8802 0.0752295C68.7902 0.0246271 68.6886 -0.00129409 68.5855 4.97122e-05C68.4825 0.00139351 68.3815 0.0299553 68.2928 0.0828882C68.2041 0.135821 68.1307 0.211276 68.08 0.301732C68.0292 0.392188 68.0028 0.494485 68.0035 0.598427V15.7101C68.0034 15.7832 67.9843 15.8549 67.948 15.9182C67.9118 15.9814 67.8597 16.0339 67.797 16.0705C67.7343 16.1071 67.6632 16.1264 67.5908 16.1265C67.5184 16.1266 67.4472 16.1075 67.3844 16.0711L64.9374 14.6498C64.7585 14.5452 64.5554 14.4901 64.3486 14.4901C64.1418 14.4901 63.9386 14.5452 63.7597 14.6498L53.9891 20.3352C53.81 20.4395 53.6612 20.5895 53.5577 20.7701C53.4542 20.9507 53.3996 21.1556 53.3994 21.3642V32.7385C53.3997 32.9473 53.4542 33.1524 53.5577 33.3333C53.6612 33.5142 53.81 33.6645 53.9891 33.7692L63.7597 39.4598C63.9392 39.5635 64.1425 39.6181 64.3494 39.6181C64.5563 39.6181 64.7596 39.5635 64.9391 39.4598L74.7063 33.7674C74.8856 33.6628 75.0346 33.5126 75.1384 33.3317C75.2422 33.1508 75.2971 32.9457 75.2977 32.7367V4.38638C75.2983 4.17321 75.2423 3.96376 75.1356 3.77977C75.0289 3.59577 74.8753 3.44392 74.6907 3.33998L68.8802 0.0752295ZM101.414 24.9951C101.592 24.8901 101.74 24.7399 101.843 24.5594C101.946 24.3789 102 24.1744 102 23.9662V21.2089C102 21.0006 101.945 20.796 101.842 20.6154C101.739 20.4349 101.591 20.2848 101.412 20.18L91.7054 14.4981C91.5258 14.3927 91.3218 14.3372 91.114 14.3372C90.9062 14.3372 90.7021 14.3927 90.5226 14.4981L80.7589 20.1835C80.5792 20.2873 80.4298 20.4371 80.326 20.6178C80.2221 20.7985 80.1674 21.0036 80.1674 21.2124V32.5833C80.1676 32.7934 80.2227 32.9998 80.3272 33.1817C80.4316 33.3635 80.5817 33.5144 80.7623 33.6192L90.4672 39.2C90.644 39.3007 90.8435 39.3536 91.0465 39.3536C91.2495 39.3536 91.4491 39.3007 91.6259 39.2L97.4951 35.9108C97.5862 35.859 97.6619 35.7838 97.7146 35.6928C97.7673 35.6017 97.7951 35.4982 97.7951 35.3928C97.7951 35.2874 97.7673 35.1839 97.7146 35.0929C97.6619 35.0019 97.5862 34.9267 97.4951 34.8749L87.6761 29.1912C87.5859 29.1395 87.5109 29.0647 87.4587 28.9743C87.4065 28.884 87.3788 28.7813 87.3787 28.6767V25.1137C87.3768 25.0076 87.4034 24.9029 87.4558 24.8107C87.5081 24.7186 87.5843 24.6425 87.6761 24.5905L90.7335 22.8117C90.8226 22.7586 90.9241 22.7306 91.0275 22.7306C91.1309 22.7306 91.2325 22.7586 91.3215 22.8117L94.372 24.5905C94.4618 24.642 94.5365 24.7166 94.5885 24.8067C94.6404 24.8967 94.6678 24.9991 94.6677 25.1033V27.9076C94.6677 28.0121 94.695 28.1147 94.7469 28.2052C94.7987 28.2956 94.8733 28.3707 94.963 28.4229C95.0528 28.475 95.1546 28.5024 95.2582 28.5023C95.3618 28.5021 95.4635 28.4745 95.5531 28.4221L101.414 24.9951Z" fill="white"/>
<defs>
<linearGradient id="paint0_linear_125_115" x1="37.1456" y1="27.2832" x2="20.5634" y2="41.5167" gradientUnits="userSpaceOnUse">
<stop stop-color="#3E863D"/>
<stop offset="1" stop-color="#5AAD45"/>
</linearGradient>
<linearGradient id="paint1_linear_125_115" x1="34.9909" y1="31.8107" x2="46.0599" y2="13.5518" gradientUnits="userSpaceOnUse">
<stop offset="0.27" stop-color="#3E863D"/>
<stop offset="1" stop-color="#78B262"/>
</linearGradient>
<linearGradient id="paint2_linear_125_115" x1="29.2272" y1="26.9102" x2="50.3714" y2="26.9102" gradientUnits="userSpaceOnUse">
<stop stop-color="#6BBF47"/>
<stop offset="0.39" stop-color="#78B262"/>
<stop offset="1" stop-color="#3E863D"/>
</linearGradient>
</defs>
</svg>
