<svg width="67" height="81" viewBox="0 0 67 81" fill="none" xmlns="http://www.w3.org/2000/svg">
<path d="M33.0213 0.000552737C30.2653 0.0133587 27.6333 0.248409 25.3175 0.658198C18.4953 1.86346 17.2566 4.38617 17.2566 9.03847V15.1828H33.3783V17.2309H17.2566H11.2063C6.52088 17.2309 2.4182 20.0471 1.13493 25.4044C-0.345303 31.5452 -0.41096 35.3772 1.13493 41.7892C2.28092 46.562 5.01769 49.9628 9.7031 49.9628H15.2461V42.5972C15.2461 37.2759 19.8502 32.5822 25.3175 32.5822H41.4204C45.9029 32.5822 49.4812 28.8914 49.4812 24.3898V9.03847C49.4812 4.6694 45.7954 1.38738 41.4204 0.658198C38.6509 0.197185 35.7774 -0.0122534 33.0213 0.000552737ZM24.3028 4.94229C25.9681 4.94229 27.328 6.3244 27.328 8.02382C27.328 9.71721 25.9681 11.0866 24.3028 11.0866C22.6316 11.0866 21.2777 9.71721 21.2777 8.02382C21.2777 6.3244 22.6316 4.94229 24.3028 4.94229Z" fill="url(#paint0_linear_116_234)"/>
<path d="M51.4918 17.231V24.3899C51.4918 29.9401 46.7862 34.6116 41.4204 34.6116H25.3175C20.9066 34.6116 17.2567 38.3867 17.2567 42.8039V58.1553C17.2567 62.5243 21.0559 65.0942 25.3175 66.3476C30.4207 67.8482 35.3144 68.1194 41.4204 66.3476C45.4791 65.1725 49.4813 62.8076 49.4813 58.1553V52.011H33.3783V49.9629H49.4813H57.5421C62.2275 49.9629 63.9735 46.6947 65.6029 41.7893C67.2861 36.7393 67.2145 31.8828 65.6029 25.4045C64.445 20.7402 62.2335 17.231 57.5421 17.231H51.4918ZM42.4351 56.1072C44.1063 56.1072 45.4602 57.4765 45.4602 59.1699C45.4602 60.8693 44.1063 62.2514 42.4351 62.2514C40.7698 62.2514 39.4099 60.8693 39.4099 59.1699C39.4099 57.4765 40.7698 56.1072 42.4351 56.1072Z" fill="url(#paint1_linear_116_234)"/>
<path opacity="0.44382" d="M33.5612 80.9725C45.493 80.9725 55.1656 79.0969 55.1656 76.7833C55.1656 74.4696 45.493 72.594 33.5612 72.594C21.6294 72.594 11.9568 74.4696 11.9568 76.7833C11.9568 79.0969 21.6294 80.9725 33.5612 80.9725Z" fill="url(#paint2_radial_116_234)"/>
<defs>
<linearGradient id="paint0_linear_116_234" x1="-2.00757e-07" y1="-1.74392e-07" x2="37.1749" y2="31.6781" gradientUnits="userSpaceOnUse">
<stop stop-color="#5A9FD4"/>
<stop offset="1" stop-color="#306998"/>
</linearGradient>
<linearGradient id="paint1_linear_116_234" x1="42.0476" y1="58.6533" x2="28.7107" y2="39.9643" gradientUnits="userSpaceOnUse">
<stop stop-color="#FFD43B"/>
<stop offset="1" stop-color="#FFE873"/>
</linearGradient>
<radialGradient id="paint2_radial_116_234" cx="0" cy="0" r="1" gradientUnits="userSpaceOnUse" gradientTransform="translate(33.5612 76.7833) rotate(-90) scale(4.18928 18.4136)">
<stop stop-color="#B8B8B8" stop-opacity="0.498039"/>
<stop offset="1" stop-color="#7F7F7F" stop-opacity="0"/>
</radialGradient>
</defs>
</svg>
