<svg width="134" height="51" viewBox="0 0 134 51" fill="none" xmlns="http://www.w3.org/2000/svg">
<path d="M44.7409 15.751C46.3859 8.39055 45.6547 2.53429 42.435 0.660046C41.696 0.221668 40.832 0.0138535 39.8889 0.0118743V0C36.7493 0 32.6393 2.2681 28.4834 6.20361C24.3274 2.29185 20.2174 0.0465189 17.0778 0.0465189V0.0583932C16.1181 0.0583932 15.2502 0.266195 14.4975 0.706553C11.2886 2.5808 10.5701 8.42519 12.2248 15.7628C5.12354 17.9844 0.5 21.538 0.5 25.2874C0.5 29.0369 5.14599 32.6102 12.2707 34.8229C10.6267 42.1833 11.3569 48.0396 14.5776 49.9138C15.3195 50.3542 16.1865 50.562 17.1461 50.562C20.2857 50.562 24.3958 48.2939 28.5517 44.3594C32.7076 48.2711 36.8176 50.5165 39.9573 50.5165C40.9169 50.5165 41.7838 50.3077 42.5375 49.8683C45.7465 47.9881 46.465 42.1497 44.8102 34.812C51.8881 32.6013 56.5126 29.0369 56.5126 25.2874C56.5126 21.538 51.8656 17.9617 44.7409 15.751ZM39.8753 2.5808V2.59268C40.3273 2.57717 40.7757 2.67938 41.1776 2.88955C42.7298 3.79203 43.4035 7.22978 42.8782 11.6502C42.7533 12.7387 42.5473 13.8836 42.2925 15.0523C39.9059 14.4694 37.4836 14.0482 35.0418 13.7916C33.5878 11.7574 32.0011 9.82404 30.2924 8.00462C34.0177 4.50748 37.503 2.58773 39.8753 2.5808ZM18.3879 31.212C18.9248 32.1356 19.4732 33.0384 20.0329 33.9204C18.4113 33.677 16.8474 33.3762 15.3518 33.0061C15.7735 31.5128 16.2997 29.974 16.8933 28.4352C17.3628 29.3605 17.8539 30.2867 18.3899 31.212H18.3879ZM15.3176 17.5678C16.8132 17.2096 18.3879 16.8969 20.0212 16.6534C19.4618 17.5441 18.9024 18.4594 18.3772 19.3965C17.8519 20.3336 17.3609 21.248 16.8933 22.1742C16.2951 20.6661 15.7706 19.1307 15.3195 17.5678H15.3176ZM18.2288 25.3221C18.9366 23.7714 19.7351 22.2198 20.5923 20.7038C21.4826 19.1422 22.3954 17.6608 23.3434 16.2833C25.045 16.1329 26.769 16.0518 28.5039 16.0518C30.2387 16.0518 31.952 16.1329 33.6419 16.2715C34.5902 17.649 35.5111 19.1148 36.4047 20.6691C37.2726 22.1851 38.0643 23.7249 38.7799 25.2756C38.0604 26.8262 37.2726 28.3769 36.4164 29.8929C35.5261 31.4554 34.6123 32.9368 33.6643 34.3143C31.9637 34.4647 30.2396 34.5458 28.5039 34.5458C26.7681 34.5458 25.0557 34.4647 23.3668 34.3251C22.4189 32.9487 21.4934 31.4782 20.603 29.9275C19.7371 28.4115 18.9502 26.8727 18.2307 25.3221H18.2288ZM38.6198 31.1773C39.145 30.2521 39.6361 29.314 40.1037 28.3887C40.7031 29.8968 41.2284 31.432 41.6794 32.9942C40.1838 33.3653 38.6081 33.677 36.9758 33.9204C37.5371 33.0298 38.0965 32.1154 38.6218 31.1773H38.6198ZM38.6081 19.3619C38.0829 18.4357 37.5235 17.5332 36.9641 16.6534C38.5856 16.8969 40.1496 17.1977 41.6452 17.5678C41.2225 19.0611 40.6983 20.5998 40.1037 22.1396C39.638 21.2134 39.147 20.2871 38.6061 19.3619H38.6081ZM31.6435 13.5403C30.6165 13.4947 29.566 13.4591 28.5039 13.4591C27.4417 13.4591 26.3688 13.4829 25.3301 13.5403C26.3105 12.2499 27.3585 11.0138 28.4697 9.8373C29.5902 11.0156 30.6502 12.2516 31.6454 13.5403H31.6435ZM15.7618 2.94001C16.1044 2.73122 16.5496 2.64314 17.0748 2.64314V2.63127C19.4384 2.63127 22.9431 4.54114 26.6646 8.02442C24.9644 9.83791 23.3889 11.7675 21.9493 13.7995C19.5028 14.0526 17.0765 14.4771 14.6879 15.0701C14.4253 13.9133 14.232 12.7941 14.0943 11.7145C13.5613 7.29114 14.2232 3.85438 15.7618 2.94001ZM12.8848 32.3233C11.7543 31.965 10.6814 31.5712 9.68753 31.1427C5.64584 29.3951 3.03143 27.1043 3.03143 25.2874C3.03143 23.4706 5.64584 21.1669 9.68753 19.4312C10.6696 19.0027 11.7425 18.6207 12.8506 18.2625C13.5485 20.6679 14.4067 23.0225 15.4191 25.3102C14.4187 27.5867 13.5729 29.9298 12.8877 32.3233H12.8848ZM17.1198 47.9931C16.671 47.9981 16.228 47.8907 15.8301 47.6804C14.2769 46.7779 13.6033 43.3411 14.1295 38.9197C14.2544 37.8312 14.4595 36.6863 14.7152 35.5176C17.1016 36.1004 19.5235 36.5219 21.9649 36.7793C23.4194 38.8128 25.0061 40.7458 26.7144 42.5653C22.9919 46.0723 19.4979 47.9931 17.1227 47.9931H17.1198ZM28.5263 40.7366C27.407 39.5599 26.3484 38.3256 25.3545 37.0385C26.3825 37.0851 27.4329 37.1197 28.4951 37.1197C29.5572 37.1197 30.6301 37.0969 31.6689 37.0385C30.6888 38.3276 29.6407 39.5621 28.5292 40.7366H28.5263ZM41.2449 47.6338C40.9023 47.8426 40.4571 47.9307 39.9319 47.9307C37.5684 47.9307 34.0636 46.0209 30.3412 42.5376C32.0416 40.7243 33.6171 38.7947 35.0565 36.7625C37.503 36.5084 39.9292 36.0831 42.3179 35.4899C42.5743 36.5999 42.7725 37.723 42.9114 38.8544C43.4513 43.2827 42.7894 46.7205 41.2479 47.6338H41.2449ZM47.3075 31.1427C46.3254 31.5712 45.2574 31.9532 44.1444 32.3114C43.4473 29.9058 42.5902 27.5508 41.5788 25.2627C42.5815 22.9863 43.4295 20.6432 44.1171 18.2496C45.2476 18.6088 46.3205 19.0017 47.326 19.4302C51.3677 21.1778 53.9821 23.4686 53.9821 25.2864C53.9821 27.1043 51.3521 29.407 47.3104 31.1427H47.3075ZM23.2741 25.2874C23.2739 24.2413 23.5797 23.2185 24.153 22.3486C24.7262 21.4787 25.5411 20.8006 26.4946 20.4001C27.448 19.9996 28.4973 19.8947 29.5095 20.0987C30.5218 20.3027 31.4517 20.8064 32.1815 21.546C32.9114 22.2857 33.4085 23.2282 33.6099 24.2542C33.8113 25.2802 33.708 26.3438 33.3131 27.3103C32.9182 28.2769 32.2494 29.103 31.3912 29.6842C30.5331 30.2654 29.5242 30.5757 28.4921 30.5757C27.1092 30.5744 25.7834 30.0167 24.8059 29.0251C23.8284 28.0335 23.2792 26.6892 23.2789 25.2874H23.2741ZM71.9716 26.5739C73.2362 26.085 74.2209 25.3461 74.9257 24.3572C75.6306 23.3683 75.9885 22.2085 75.9996 20.8779C75.9996 18.7846 75.3576 17.1901 74.0735 16.0943C72.7998 14.9979 70.9751 14.4497 68.5996 14.4497H61.6213V35.8243H64.4154V27.1785H69.3679L73.9465 35.8204H76.93V35.6433L71.9716 26.5739ZM68.6875 24.8669H64.4154V16.7653H68.6748C70.1417 16.7738 71.2615 17.1307 72.0341 17.836C72.8066 18.5412 73.1971 19.5539 73.2056 20.874C73.2056 22.0878 72.7952 23.0566 71.9745 23.7803C71.1538 24.504 70.0581 24.8662 68.6875 24.8669ZM92.1049 27.5268C92.1049 24.9922 91.5399 23.0461 90.4101 21.6884C89.2802 20.3307 87.6974 19.6495 85.6616 19.6449C84.4256 19.6422 83.2165 20.0099 82.1861 20.7018C81.124 21.3964 80.2938 22.3652 79.6957 23.6081C79.0976 24.851 78.8031 26.2552 78.8122 27.8207V28.3155C78.8122 30.6832 79.4783 32.5766 80.8106 33.9956C82.1428 35.4147 83.8711 36.1196 85.9955 36.1103C88.6203 36.1103 90.5894 35.0878 91.9028 33.0427L90.2666 31.7513C89.7964 32.3775 89.2113 32.9057 88.5435 33.3069C87.8862 33.6988 87.085 33.8947 86.14 33.8947C84.8077 33.8947 83.7071 33.4151 82.8383 32.4558C81.9694 31.4966 81.5203 30.2293 81.491 28.6539H92.1049V27.5268ZM89.426 26.4264H81.5769C81.7507 24.9876 82.2047 23.8717 82.9388 23.0787C83.2805 22.6917 83.7006 22.384 84.1703 22.1765C84.64 21.969 85.1483 21.8667 85.6606 21.8764C86.7807 21.8764 87.6691 22.2577 88.3258 23.0203C88.9825 23.7829 89.3492 24.8497 89.426 26.2206V26.4264ZM107.15 32.1065V24.7966C107.111 23.1922 106.58 21.9348 105.557 21.0244C104.534 20.114 103.119 19.6541 101.314 19.6449C100.234 19.6331 99.1629 19.853 98.1723 20.2901C97.226 20.7216 96.473 21.3087 95.9132 22.0515C95.3535 22.7944 95.0782 23.5577 95.0873 24.3414H97.7808C97.7808 23.6467 98.1043 23.055 98.7512 22.5661C99.3981 22.0773 100.199 21.8325 101.155 21.8319C102.245 21.8319 103.07 22.1155 103.631 22.6829C104.193 23.2502 104.472 24.004 104.471 24.944V26.1909H101.867C99.6181 26.1909 97.871 26.651 96.6259 27.5713C95.3893 28.4811 94.771 29.7629 94.771 31.4168C94.771 32.7765 95.2634 33.9016 96.2481 34.7922C97.2426 35.6729 98.5117 36.1136 100.055 36.1143C101.783 36.1143 103.27 35.4585 104.516 34.147C104.612 34.9499 104.737 35.5077 104.892 35.8204H107.702V35.5849C107.332 34.724 107.148 33.5645 107.148 32.1065H107.15ZM104.471 31.3723C104.133 32.0769 103.588 32.6495 102.835 33.0902C102.111 33.5227 101.286 33.7509 100.446 33.7512C99.5673 33.7512 98.8478 33.5111 98.2875 33.0308C97.7271 32.5505 97.4473 31.8852 97.4479 31.0348C97.4479 29.0874 99.089 28.114 102.371 28.1146H104.471V31.3723ZM117.634 33.8977C118.546 33.9133 119.433 33.6009 120.139 33.0159C120.855 32.4295 121.251 31.6955 121.326 30.8142H123.864C123.806 31.7522 123.484 32.6538 122.937 33.4128C122.348 34.2514 121.561 34.9274 120.649 35.379C119.717 35.8655 118.684 36.1177 117.637 36.1143C115.504 36.1143 113.805 35.3949 112.54 33.956C111.286 32.5047 110.658 30.5279 110.658 28.0256V27.5713C110.658 26.025 110.937 24.6501 111.497 23.4468C112.057 22.2435 112.858 21.309 113.902 20.6434C114.953 19.9771 116.193 19.6439 117.622 19.6439C119.379 19.6439 120.837 20.1776 121.996 21.245C123.154 22.3125 123.777 23.6979 123.864 25.4012H121.326C121.249 24.3741 120.863 23.5326 120.168 22.8768C119.473 22.2211 118.624 21.8886 117.619 21.8794C116.258 21.8794 115.201 22.3781 114.448 23.3756C113.706 24.3652 113.334 25.799 113.334 27.6772V28.1898C113.334 30.0192 113.705 31.4284 114.448 32.4173C115.192 33.4062 116.253 33.901 117.634 33.9016V33.8977ZM130.508 16.0933V19.9388H133.437V22.0377H130.508V31.8859C130.508 32.5218 130.638 33.0014 130.898 33.3247C131.159 33.6374 131.603 33.7941 132.231 33.7947C132.659 33.7783 133.084 33.7193 133.5 33.6186V35.8204C132.831 36.0118 132.139 36.1116 131.444 36.1173C130.247 36.1173 129.344 35.7501 128.736 35.0159C128.127 34.2816 127.823 33.2393 127.824 31.8888V22.0406H124.97V19.9388H127.824V16.0933H130.508Z" fill="#00D8FF"/>
</svg>
