<svg width="76" height="76" viewBox="0 0 76 76" fill="none" xmlns="http://www.w3.org/2000/svg">
<path d="M52.6597 52.3154C47.316 63.2404 37.9585 70.591 25.5788 73.0076C23.6806 73.4726 21.7321 73.7 19.7778 73.6845C12.6528 73.6845 6.1216 70.7157 2.95097 65.8529C-1.30622 59.3751 -2.75496 45.6416 11.2813 35.4826C11.5663 37.0323 12.1482 39.1579 12.5341 40.4166C9.7787 42.4637 7.5233 45.1089 5.93753 48.1532C3.32503 53.2832 3.61597 58.4073 6.70941 63.1454C8.84691 66.3398 12.2313 68.2813 16.5835 68.8751C22.0195 69.5631 27.5342 68.5246 32.3475 65.9063C39.8941 61.9401 44.9232 57.202 48.2125 50.7241C47.2824 49.763 46.7319 48.4974 46.6628 47.1616C46.6131 45.7282 47.1341 44.3337 48.1115 43.284C49.0888 42.2343 50.4427 41.6152 51.876 41.5626H52.0778C53.472 41.5556 54.8154 42.0848 55.8302 43.0407C56.845 43.9966 57.4535 45.3061 57.5297 46.6981C57.606 48.0901 57.1442 49.4582 56.24 50.5193C55.3357 51.5803 54.0581 52.2531 52.6716 52.3985L52.6597 52.3154ZM69.6825 40.3216C76.9322 48.5391 77.1282 58.2113 74.3257 63.8223C71.7132 68.9463 64.8257 74.0763 55.5632 74.0763C51.2393 73.9881 46.9857 72.9652 43.0944 71.0779C44.4541 70.1101 46.3838 68.5604 47.4466 67.5926C50.4473 68.8926 53.6766 69.5828 56.9466 69.6232C62.9435 69.6232 67.4857 66.8207 70.1932 61.6966C71.9328 58.3123 72.0338 54.346 70.3891 50.2848C68.371 45.1749 64.7798 40.8393 60.135 37.9051C54.0412 33.7972 46.8573 31.6073 39.5082 31.6173H37.7685C37.3628 32.5544 36.7029 33.3591 35.8634 33.9405C35.0239 34.5218 34.0384 34.8565 33.0185 34.9066H32.8344C31.4238 34.8893 30.0754 34.3227 29.0758 33.3272C28.0762 32.3317 27.504 30.9858 27.4808 29.5752C27.4576 28.1646 27.9853 26.8006 28.9516 25.7728C29.918 24.745 31.247 24.1344 32.6563 24.0707H32.8522C33.8343 24.0714 34.7972 24.3428 35.6352 24.855C36.4731 25.3672 37.1537 26.1004 37.6022 26.9741H39.1519C51.5019 26.9741 62.3438 31.7123 69.6825 40.3216ZM20.5497 53.9779C20.448 52.9919 20.6869 52.0008 21.2266 51.1695C15.8116 41.7882 12.9141 29.8954 17.3613 17.5157C20.5497 8.21164 28.5772 1.92383 37.2816 1.92383C46.5678 1.92383 56.24 10.0523 57.3978 25.7154C55.9491 25.2345 53.8353 24.5279 52.5647 24.2666C52.25 19.1426 47.9216 6.37695 37.6675 6.56695C33.9922 6.66789 28.5772 8.40758 25.7925 11.982C22.348 16.2488 20.3441 21.4974 20.0688 26.9741C19.4161 34.4837 21.178 42.0056 25.0978 48.4441C25.3142 48.3651 25.5449 48.3327 25.7747 48.3491H25.9647C27.4009 48.3232 28.7885 48.8687 29.8224 49.8659C30.8563 50.863 31.4517 52.23 31.4777 53.6662C31.5037 55.1023 30.9581 56.49 29.9609 57.5238C28.9638 58.5577 27.5968 59.1532 26.1607 59.1791H25.9647C24.5637 59.1742 23.2186 58.6287 22.2098 57.6564C21.201 56.6841 20.6063 55.36 20.5497 53.9601V53.9779Z" fill="#764ABC"/>
</svg>
